<?xml version="1.0" encoding="utf-8"?>
<!-- Generator: Adobe Illustrator 16.0.0, SVG Export Plug-In . SVG Version: 6.00 Build 0)  -->
<!DOCTYPE svg PUBLIC "-//W3C//DTD SVG 1.1//EN" "http://www.w3.org/Graphics/SVG/1.1/DTD/svg11.dtd">
<svg version="1.1" id="Layer_1" xmlns="http://www.w3.org/2000/svg" xmlns:xlink="http://www.w3.org/1999/xlink" x="0px" y="0px"
	 width="567px" height="531px" viewBox="0 0 567 531" enable-background="new 0 0 567 531" xml:space="preserve">
<rect x="-71.749" y="114.25" transform="matrix(0.7071 0.7071 -0.7071 0.7071 260.0212 1.2514)" display="none" fill="#B3B3B3" width="400.498" height="400.498"/>
<rect x="-72" y="114" display="none" fill="#B3B3B3" width="401" height="401"/>
<defs>
	<filter id="Adobe_OpacityMaskFilter" filterUnits="userSpaceOnUse" x="-350.534" y="-204.582" width="779.772" height="726.696">
		
			<feColorMatrix  type="matrix" values="-1 0 0 0 1  0 -1 0 0 1  0 0 -1 0 1  0 0 0 1 0" color-interpolation-filters="sRGB" result="source"/>
	</filter>
</defs>
<mask maskUnits="userSpaceOnUse" x="-350.534" y="-204.582" width="779.772" height="726.696" id="SVGID_1_">
	<g filter="url(#Adobe_OpacityMaskFilter)">
		<g>
			<g>
				<g>
					<path d="M262.26,200.215c-11.468-0.021-12.452,9.004-12.524,20.349c8.681,3.709,14.767,12.32,14.8,22.343
						c10.724-1.157,19.071-10.221,19.092-21.246C283.649,209.835,274.086,200.237,262.26,200.215z M259.09,208.202
						c-3.238,3.811-2.521,12.142-5.944,10.674c0.072-10.257,0.959-16.624,11.324-16.605
						C270.499,202.283,263.29,203.268,259.09,208.202z"/>
					<path d="M240.813,221.581c-11.827-0.022-12.506,9.557-12.528,21.384c-0.022,11.826,0.621,21.408,12.448,21.43
						c11.828,0.022,21.424-9.54,21.446-21.366C262.202,231.202,252.642,221.604,240.813,221.581z M236.158,230.886
						c-4.258,6.716-5.063,17.792-5.053,12.084c0.021-10.846,0.786-19.622,11.489-19.602
						C247.66,223.378,240.004,224.845,236.158,230.886z"/>
					<path d="M71.928,224.243c-21.995-0.041-36.299,17.771-36.34,39.767c-0.042,21.996,14.195,39.86,36.191,39.902
						c22.013,0.042,36.317-17.77,36.358-39.766C108.179,242.15,93.94,224.284,71.928,224.243z M51.231,244.416
						c-11.975,12.036-12.917,29.927-12.898,19.599c0.038-20.158,13.376-36.473,33-36.437
						C81.768,227.598,62.616,232.967,51.231,244.416z"/>
					<path d="M-10.085,199.703c-11.81-0.022-21.425,9.539-21.447,21.367c-0.021,11.167,8.507,20.335,19.387,21.354
						c0.054-9.811,6.01-18.219,14.507-21.845C2.367,209.003,1.562,199.725-10.085,199.703z M-19.082,211.762
						c-5.611,5.878-9.178,14.328-9.168,9.314c0.018-9.687,6.865-17.523,17.568-17.503C-6.382,203.581-13.86,206.314-19.082,211.762z
						"/>
					<path d="M11.282,221.15c-11.81-0.022-21.425,9.54-21.448,21.366c-0.022,11.827,9.557,21.425,21.367,21.447
						c11.826,0.022,12.504-9.557,12.526-21.384C23.75,230.753,23.108,221.173,11.282,221.15z M1.43,233.19
						c-6.06,6.021-9.661,14.539-9.651,9.33c0.02-10.435,8.206-18.858,18.909-18.838C16.039,223.692,7.507,227.191,1.43,233.19z"/>
					<path d="M181.352,224.449c-22.014-0.042-36.316,17.771-36.358,39.767c-0.041,21.996,14.195,39.861,36.208,39.902
						c21.995,0.042,36.301-17.77,36.342-39.766S203.347,224.49,181.352,224.449z M161.833,244.624
						c-11.975,12.036-12.919,29.927-12.899,19.599c0.038-20.158,13.377-36.474,33-36.437
						C192.368,227.806,173.219,233.175,161.833,244.624z"/>
				</g>
			</g>
			<path d="M108.382,418.701c-9.508-3.784-18.005-5.664-14.229-22.845c0.71-3.225,1.652-6.269,2.823-9.096
				c1.229,5.219,4.261,10.195,8.65,14.409c-0.146,0.332-0.276,0.689-0.426,1.021C100.078,414.469,103.928,412.704,108.382,418.701z"
				/>
			<path d="M141.448,418.882c9.5-3.799,19.718-5.663,15.933-22.84c-0.711-3.222-1.651-6.27-2.828-9.093
				c-1.226,5.217-4.254,10.201-8.641,14.415c0.146,0.332,0.279,0.688,0.427,1.019C151.469,414.661,145.895,412.876,141.448,418.882z
				"/>
			<path d="M121.728,351.91c0.038-20.027,13.283-18.398,29.63-18.368c16.344,0.03,29.597-1.548,29.559,18.479
				c-0.037,20.03-13.352,54.082-29.695,54.051C134.874,406.041,121.69,371.94,121.728,351.91z"/>
			<path d="M69.504,351.812c0.037-20.027,13.283-18.398,29.627-18.368c16.346,0.03,29.599-1.548,29.561,18.479
				c-0.037,20.03-13.352,54.082-29.697,54.051C82.65,405.943,69.466,371.842,69.504,351.812z"/>
		</g>
	</g>
</mask>
<radialGradient id="SVGID_2_" cx="-821.9492" cy="695.1875" r="154.1678" gradientTransform="matrix(-1.491 -1.0976 0.988 -1.3422 -1873.0183 189.6757)" gradientUnits="userSpaceOnUse">
	<stop  offset="0" style="stop-color:#00FFFF"/>
	<stop  offset="0.1067" style="stop-color:#04F8FD"/>
	<stop  offset="0.2646" style="stop-color:#0DE4F6"/>
	<stop  offset="0.4535" style="stop-color:#1DC3EA"/>
	<stop  offset="0.5719" style="stop-color:#29ABE2"/>
	<stop  offset="0.7057" style="stop-color:#28A9E0"/>
	<stop  offset="0.7833" style="stop-color:#25A0D8"/>
	<stop  offset="0.8465" style="stop-color:#1F92CA"/>
	<stop  offset="0.9019" style="stop-color:#177EB7"/>
	<stop  offset="0.9518" style="stop-color:#0D659F"/>
	<stop  offset="0.9979" style="stop-color:#014681"/>
	<stop  offset="1" style="stop-color:#00447F"/>
</radialGradient>
<polygon display="none" mask="url(#SVGID_1_)" fill="url(#SVGID_2_)" points="-105.192,-204.582 429.238,188.815 183.896,522.114 
	-350.534,128.718 "/>
<g display="none">
	<path display="inline" fill="none" stroke="#29ABE2" stroke-width="5" stroke-miterlimit="10" d="M321.29,506.39
		C264.1,496,198.81,490.11,129.5,490.11S-5.1,496-62.29,506.39C-51.9,449.2-46.01,383.92-46.01,314.61s-5.89-134.6-16.28-191.79
		C-5.1,133.21,60.19,139.1,129.5,139.1s134.6-5.89,191.79-16.28c-10.39,57.19-16.28,122.48-16.28,191.79S310.9,449.2,321.29,506.39z
		"/>
	<path display="inline" fill="none" stroke="#0071BC" stroke-width="5" stroke-miterlimit="10" d="M129.503,585.833
		C96.41,538.046,54.408,487.715,5.398,438.706c-49.009-49.01-99.341-91.013-147.127-124.105
		c47.786-33.092,98.111-75.088,147.121-124.098S96.404,91.162,129.496,43.376c33.092,47.786,75.095,98.119,124.104,147.128
		c49.01,49.009,99.342,91.011,147.129,124.104C352.942,347.7,302.609,389.702,253.6,438.712S162.596,538.048,129.503,585.833z"/>
</g>
<g display="none">
	<polygon display="inline" fill="none" stroke="#0071BC" stroke-width="5" stroke-miterlimit="10" points="-869.308,382.5 
		-1007.246,143.5 -869.308,-95.5 -593.432,-95.5 -455.493,143.5 -593.432,382.5 	"/>
	
		<ellipse display="inline" fill="none" stroke="#0071BC" stroke-width="5" stroke-miterlimit="10" cx="-731.654" cy="-219.154" rx="318.863" ry="137.654"/>
	
		<ellipse display="inline" fill="none" stroke="#0071BC" stroke-width="5" stroke-miterlimit="10" cx="-731.654" cy="506.846" rx="318.863" ry="137.654"/>
	
		<ellipse transform="matrix(0.4967 0.8679 -0.8679 0.4967 -241.315 343.2248)" display="inline" fill="none" stroke="#0071BC" stroke-width="5" stroke-miterlimit="10" cx="-416.597" cy="-36.457" rx="318.863" ry="137.654"/>
	
		<ellipse transform="matrix(0.4967 0.8679 -0.8679 0.4967 -245.4725 1071.6042)" display="inline" fill="none" stroke="#0071BC" stroke-width="5" stroke-miterlimit="10" cx="-1046.708" cy="324.148" rx="318.863" ry="137.654"/>
	
		<ellipse transform="matrix(-0.5028 0.8644 -0.8644 -0.5028 -345.8768 851.6724)" display="inline" fill="none" stroke="#0071BC" stroke-width="5" stroke-miterlimit="10" cx="-417.876" cy="326.364" rx="318.862" ry="137.654"/>
	
		<ellipse transform="matrix(-0.5028 0.8644 -0.8644 -0.5028 -1604.5057 845.5538)" display="inline" fill="none" stroke="#0071BC" stroke-width="5" stroke-miterlimit="10" cx="-1045.43" cy="-38.672" rx="318.862" ry="137.654"/>
</g>
<g>
	<path fill="none" stroke="#29ABE2" stroke-width="5" stroke-miterlimit="10" d="M448.313,43.13l0.591,1.316
		c9.062,41.24,23.346,85.322,43.17,129.937c19.955,44.896,43.256,85.497,67.774,119.86l-0.233,0.322
		c-30.78,28.936-62.285,63.465-90.992,103.189c-28.707,39.723-51.598,80.465-69.415,118.778l-0.427,0.591l-4.7-0.373
		c-39.611-12.4-84.142-21.656-131.681-26.709c-48.896-5.206-95.694-5.318-137.959-1.192l-0.873-1.976
		c-9.07-41.039-23.463-84.987-43.183-129.354c-19.968-44.93-43.265-85.529-67.989-120.054
		c31.316-28.669,62.487-63.602,91.281-103.444c29.059-40.211,52.601-81.135,70.051-120.186l0.721,0.079
		c40.594,13.023,86.586,22.794,135.715,28.021C359.123,47.139,406.002,47.284,448.313,43.13z"/>
	<path fill="none" stroke="#0071BC" stroke-width="5" stroke-miterlimit="10" d="M558.781,227.847l-0.534,1.34
		c-23.366,35.172-45.113,76.283-63.427,121.54c-18.424,45.546-31.438,90.486-39.082,132.233l-0.396,0.057
		c-42.272-2.568-88.919-0.699-137.435,6.254c-48.513,6.954-93.797,18.265-133.654,32.605l-0.723,0.104l-3.027-3.85
		c-18.604-37.105-42.901-75.668-72.298-113.367C77.978,365.979,45.533,332.19,13.201,304.66l0.811-2.026
		c23.212-35.037,44.817-75.937,63.023-120.946c18.44-45.577,31.451-90.549,39.103-132.315c42.378,2.603,89.159,0.745,137.821-6.231
		c49.107-7.039,94.898-18.542,135.105-33.126l0.447,0.573c18.836,38.244,43.764,78.11,74.142,117.074
		C493.928,166.488,526.396,200.304,558.781,227.847z"/>
</g>
</svg>
